<svg width="24" height="24" viewBox="0 0 24 24" fill="none" xmlns="http://www.w3.org/2000/svg">
<g clip-path="url(#clip0_699_652)">
<path d="M12 8C12.7826 8 13.548 8.22958 14.2014 8.66029C14.8549 9.09101 15.3676 9.70394 15.6761 10.4232C15.9846 11.1424 16.0753 11.9363 15.9371 12.7066C15.7988 13.4769 15.4376 14.1898 14.8983 14.7568C14.3589 15.3239 13.665 15.7202 12.9026 15.8968C12.1402 16.0734 11.3427 16.0225 10.6089 15.7503C9.87519 15.4782 9.23739 14.9967 8.77454 14.3657C8.31169 13.7346 8.04413 12.9816 8.005 12.2L8 12L8.005 11.8C8.05631 10.775 8.4996 9.80901 9.24319 9.10172C9.98677 8.39444 10.9738 8 12 8Z" fill="black"/>
<path d="M12 2C12.2449 2.00003 12.4813 2.08996 12.6644 2.25272C12.8474 2.41547 12.9643 2.63975 12.993 2.883L13 3V5C12.9997 5.25488 12.9021 5.50003 12.7272 5.68537C12.5522 5.8707 12.313 5.98223 12.0586 5.99717C11.8042 6.01211 11.5536 5.92933 11.3582 5.76574C11.1627 5.60214 11.0371 5.3701 11.007 5.117L11 5V3C11 2.73478 11.1054 2.48043 11.2929 2.29289C11.4804 2.10536 11.7348 2 12 2Z" fill="black"/>
<path d="M17.693 4.89326C17.873 4.71391 18.1144 4.60978 18.3684 4.60203C18.6223 4.59427 18.8697 4.68347 19.0603 4.85151C19.2508 5.01954 19.3703 5.25381 19.3944 5.50673C19.4185 5.75965 19.3454 6.01227 19.19 6.21326L19.107 6.30726L17.707 7.70726C17.527 7.8866 17.2856 7.99073 17.0316 7.99849C16.7777 8.00624 16.5303 7.91704 16.3397 7.74901C16.1492 7.58097 16.0297 7.34671 16.0056 7.09378C15.9815 6.84086 16.0546 6.58825 16.21 6.38726L16.293 6.29326L17.693 4.89326Z" fill="black"/>
<path d="M21 11C21.2549 11.0003 21.5 11.0979 21.6854 11.2728C21.8707 11.4478 21.9822 11.687 21.9972 11.9414C22.0121 12.1958 21.9293 12.4464 21.7657 12.6418C21.6021 12.8373 21.3701 12.9629 21.117 12.993L21 13H19C18.7451 12.9997 18.5 12.9021 18.3146 12.7272C18.1293 12.5522 18.0178 12.313 18.0028 12.0586C17.9879 11.8042 18.0707 11.5536 18.2343 11.3582C18.3978 11.1627 18.6299 11.0371 18.883 11.007L19 11H21Z" fill="black"/>
<path d="M16.293 16.2929C16.4652 16.1207 16.6943 16.0173 16.9373 16.002C17.1804 15.9867 17.4206 16.0606 17.613 16.2099L17.707 16.2929L19.107 17.6929C19.2864 17.8728 19.3905 18.1143 19.3983 18.3682C19.406 18.6222 19.3168 18.8696 19.1488 19.0601C18.9807 19.2507 18.7465 19.3702 18.4936 19.3943C18.2406 19.4184 17.988 19.3453 17.787 19.1899L17.693 19.1069L16.293 17.7069C16.1056 17.5193 16.0002 17.265 16.0002 16.9999C16.0002 16.7347 16.1056 16.4804 16.293 16.2929Z" fill="black"/>
<path d="M12 18C12.2449 18 12.4813 18.09 12.6644 18.2527C12.8474 18.4155 12.9643 18.6397 12.993 18.883L13 19V21C12.9997 21.2549 12.9021 21.5 12.7272 21.6854C12.5522 21.8707 12.313 21.9822 12.0586 21.9972C11.8042 22.0121 11.5536 21.9293 11.3582 21.7657C11.1627 21.6021 11.0371 21.3701 11.007 21.117L11 21V19C11 18.7348 11.1054 18.4804 11.2929 18.2929C11.4804 18.1054 11.7348 18 12 18Z" fill="black"/>
<path d="M6.29298 16.2936C6.47294 16.1143 6.71442 16.0102 6.96837 16.0024C7.22232 15.9947 7.4697 16.0839 7.66026 16.2519C7.85083 16.4199 7.97029 16.6542 7.99438 16.9071C8.01847 17.16 7.94539 17.4127 7.78998 17.6136L7.70698 17.7076L6.30698 19.1076C6.12702 19.287 5.88555 19.3911 5.6316 19.3989C5.37765 19.4066 5.13027 19.3174 4.9397 19.1494C4.74914 18.9814 4.62968 18.7471 4.60558 18.4942C4.58149 18.2412 4.65457 17.9886 4.80998 17.7876L4.89298 17.6936L6.29298 16.2936Z" fill="black"/>
<path d="M5.99999 11C6.25487 11.0003 6.50002 11.0979 6.68536 11.2728C6.8707 11.4478 6.98223 11.687 6.99716 11.9414C7.0121 12.1958 6.92932 12.4464 6.76573 12.6418C6.60214 12.8373 6.37009 12.9629 6.11699 12.993L5.99999 13H3.99999C3.74511 12.9997 3.49996 12.9021 3.31462 12.7272C3.12929 12.5522 3.01776 12.313 3.00282 12.0586C2.98788 11.8042 3.07067 11.5536 3.23426 11.3582C3.39785 11.1627 3.62989 11.0371 3.88299 11.007L3.99999 11H5.99999Z" fill="black"/>
<path d="M4.89301 4.89247C5.0652 4.72029 5.2943 4.61686 5.53732 4.60158C5.78035 4.5863 6.0206 4.66022 6.21301 4.80947L6.30701 4.89247L7.70701 6.29247C7.88635 6.47243 7.99048 6.71391 7.99823 6.96785C8.00599 7.2218 7.91679 7.46918 7.74876 7.65975C7.58072 7.85031 7.34645 7.96978 7.09353 7.99387C6.84061 8.01796 6.588 7.94488 6.38701 7.78947L6.29301 7.70647L4.89301 6.30647C4.70554 6.11894 4.60022 5.86463 4.60022 5.59947C4.60022 5.33431 4.70554 5.08 4.89301 4.89247Z" fill="black"/>
</g>
<defs>
<clipPath id="clip0_699_652">
<rect width="24" height="24" fill="white"/>
</clipPath>
</defs>
</svg>
